<svg xmlns="http://www.w3.org/2000/svg" width="15" height="15" viewBox="0 0 15 15">
  <path fill="#FFF" d="M13.9285714,6.42857143 L8.57142857,6.42857143 L8.57142857,1.07142857 C8.57142857,0.479196429 8.09223214,0 7.5,0 C6.90776786,0 6.42857143,0.482142857 6.42857143,1.07142857 L6.42857143,6.42857143 L1.07142857,6.42857143 C0.482142857,6.42857143 0,6.91071429 0,7.5 C0,8.08928571 0.482142857,8.57142857 1.07142857,8.57142857 L6.42857143,8.57142857 L6.42857143,13.9285714 C6.42857143,14.5208036 6.90776786,15 7.5,15 C8.09223214,15 8.57142857,14.5208036 8.57142857,13.9285714 L8.57142857,8.57142857 L13.9285714,8.57142857 C14.5208036,8.57142857 15,8.09223214 15,7.5 C15,6.90776786 14.5178571,6.42857143 13.9285714,6.42857143 Z"/>
</svg>
