<svg xmlns="http://www.w3.org/2000/svg" width="11" height="11" viewBox="0 0 11 11">
  <path fill="#FFF" d="M5.10134577,10.4594799 L5.00261865,10.5103579 L4.89417795,10.5493472 L4.81915931,10.5672768 L4.71223234,10.5810103 L4.60373738,10.5813122 L4.49632144,10.5680341 L4.39514373,10.5425514 L4.29789721,10.5050331 L4.21172567,10.4596239 L4.127,10.402 L4.07731836,10.3602766 L0.670309741,6.95469026 C0.332896753,6.61727727 0.332896753,6.07022273 0.670309741,5.73280974 C0.97960498,5.4235145 1.46505736,5.3977399 1.80371212,5.65548593 L1.89219026,5.73280974 L4.486,8.326 L8.97787611,0.836725667 C9.22338012,0.427552318 9.75410098,0.294872102 10.1632743,0.540376112 C10.5409728,0.766995198 10.6830795,1.23663929 10.5096116,1.62937721 L10.4596239,1.72577433 L5.39712389,10.1632743 C5.32158419,10.2891738 5.21904172,10.3888965 5.10134577,10.4594799 Z"/>
</svg>
