<svg xmlns="http://www.w3.org/2000/svg" width="10" height="10" viewBox="0 0 10 10">
  <path fill="#9AA8B8" d="M10.1428571,4.14285714 L5.85714286,4.14285714 L5.85714286,-0.142857143 C5.85714286,-0.616642857 5.47378571,-1 5,-1 C4.52621429,-1 4.14285714,-0.614285714 4.14285714,-0.142857143 L4.14285714,4.14285714 L-0.142857143,4.14285714 C-0.614285714,4.14285714 -1,4.52857143 -1,5 C-1,5.47142857 -0.614285714,5.85714286 -0.142857143,5.85714286 L4.14285714,5.85714286 L4.14285714,10.1428571 C4.14285714,10.6166429 4.52621429,11 5,11 C5.47378571,11 5.85714286,10.6166429 5.85714286,10.1428571 L5.85714286,5.85714286 L10.1428571,5.85714286 C10.6166429,5.85714286 11,5.47378571 11,5 C11,4.52621429 10.6142857,4.14285714 10.1428571,4.14285714 Z" transform="rotate(45 5 5)"/>
</svg>
