<svg xmlns="http://www.w3.org/2000/svg" width="14" height="20" viewBox="0 0 14 20">
  <g fill="none" fill-rule="evenodd">
    <path fill="#3BB7DE" fill-rule="nonzero" d="M4.08333333,5 L9.91666667,5 C10.2375,5 10.5,4.71875 10.5,4.375 C10.5,4.03125 10.2375,3.75 9.91666667,3.75 L9.00958333,3.75 C9.209375,3.38085937 9.33333333,2.9578125 9.33333333,2.5 C9.33333333,1.11914062 8.28880208,0 7,0 C5.71119792,0 4.66666667,1.11914062 4.66666667,2.5 C4.66666667,2.9578125 4.78985937,3.38085937 4.99030729,3.75 L4.08333333,3.75 C3.7625,3.75 3.5,4.03125 3.5,4.375 C3.5,4.71875 3.7625,5 4.08333333,5 Z M7,1.25 C7.643125,1.25 8.16666667,1.8109375 8.16666667,2.5 C8.16666667,3.1890625 7.643125,3.75 7,3.75 C6.356875,3.75 5.83333333,3.1890625 5.83333333,2.5 C5.83333333,1.8109375 6.35833333,1.25 7,1.25 Z M11.6666667,2.5 C11.3442292,2.5 11.0833333,2.77953125 11.0833333,3.125 C11.0833333,3.47046875 11.3458333,3.75 11.6666667,3.75 C12.3097917,3.75 12.8333333,4.31015625 12.8333333,5 L12.8333333,17.5 C12.8333333,18.1898437 12.3097917,18.75 11.6666667,18.75 L2.33333333,18.75 C1.69020833,18.75 1.16666667,18.1898437 1.16666667,17.5 L1.16666667,5 C1.16666667,4.31015625 1.69020833,3.75 2.33333333,3.75 C2.65577083,3.75 2.91666667,3.47046875 2.91666667,3.125 C2.91666667,2.77953125 2.655625,2.5 2.33333333,2.5 C1.04635417,2.5 0,3.621875 0,5 L0,17.5 C0,18.878125 1.04635417,20 2.33333333,20 L11.6666667,20 C12.9536458,20 14,18.878125 14,17.5 L14,5 C14,3.621875 12.9536458,2.5 11.6666667,2.5 Z M2.625,10 C2.625,10.5175781 3.01692708,10.9375 3.5,10.9375 C3.9834375,10.9375 4.375,10.5175781 4.375,10 C4.375,9.48203125 3.9834375,9.0625 3.5,9.0625 C3.01692708,9.0625 2.625,9.48046875 2.625,10 Z M3.5,12.8125 C3.01692708,12.8125 2.625,13.2320312 2.625,13.75 C2.625,14.2675781 3.01692708,14.6875 3.5,14.6875 C3.9834375,14.6875 4.375,14.2675781 4.375,13.75 C4.375,13.2304687 3.98489583,12.8125 3.5,12.8125 Z M11.0833333,9.375 L6.41666667,9.375 C6.09583333,9.375 5.83333333,9.65625 5.83333333,10 C5.83333333,10.34375 6.09422917,10.625 6.41666667,10.625 L11.0833333,10.625 C11.4041667,10.625 11.6666667,10.34375 11.6666667,10 C11.6666667,9.65625 11.4041667,9.375 11.0833333,9.375 Z M11.0833333,13.125 L6.41666667,13.125 C6.09583333,13.125 5.83333333,13.40625 5.83333333,13.75 C5.83333333,14.09375 6.09422917,14.375 6.41666667,14.375 L11.0833333,14.375 C11.4057708,14.375 11.6666667,14.0954687 11.6666667,13.75 C11.6666667,13.4045312 11.4041667,13.125 11.0833333,13.125 Z"/>
    <text fill="#02264D" font-family="NunitoSans-Bold, Nunito Sans" font-size="5" font-weight="bold">
      <tspan x="0" y="-6.73">SVG </tspan> <tspan x="11.78" y="-6.73" font-family="NunitoSans-Regular, Nunito Sans" font-weight="normal">vector icons</tspan>
    </text>
  </g>
</svg>
