<svg xmlns="http://www.w3.org/2000/svg" width="16" height="16" viewBox="0 0 16 16">
  <g fill="none" fill-rule="evenodd">
    <path fill="#3BB7DE" fill-rule="nonzero" d="M6.66379291,0.45 C10.1092751,0.45 12.9021936,3.24219805 12.9021936,6.6875 C12.9021936,7.98935363 12.5143392,9.2202782 11.8044275,10.2449097 L11.606,10.515 L15.3343239,14.242672 C15.5933731,14.5100353 15.6184068,14.9084903 15.4417811,15.1752712 L15.3754814,15.2589608 L15.3024705,15.3247586 C15.1560743,15.4711972 14.9404565,15.55 14.7588247,15.55 C14.6352042,15.55 14.5255545,15.5174712 14.417147,15.4618731 L14.3086821,15.3989357 L14.2167975,15.3249551 L10.495,11.603 L10.4528601,11.6365426 C9.5295666,12.3456843 8.42733617,12.7857763 7.25518848,12.8970446 L6.96075803,12.9179765 L6.66379291,12.925 C3.23883593,12.925 0.45,10.1281575 0.45,6.6875 C0.45,3.23876205 3.22253498,0.45 6.66379291,0.45 Z M6.66379291,1.9875 C4.07218876,1.9875 1.96296148,4.0963933 1.96296148,6.6875 C1.96296148,9.27890316 4.07166479,11.3875 6.66379291,11.3875 C9.27163895,11.3875 11.3646243,9.28782521 11.3646243,6.6875 C11.3646243,4.0963933 9.25539707,1.9875 6.66379291,1.9875 Z"/>
    <text fill="#02264D" font-family="NunitoSans-Bold, Nunito Sans" font-size="5" font-weight="bold">
      <tspan x="-27" y="-8.73">SVG </tspan> <tspan x="-15.22" y="-8.73" font-family="NunitoSans-Regular, Nunito Sans" font-weight="normal">vector icons</tspan>
    </text>
  </g>
</svg>
