<svg xmlns="http://www.w3.org/2000/svg" width="20" height="20" viewBox="0 0 20 20">
  <g fill="none" fill-rule="evenodd">
    <circle cx="10" cy="10" r="10" fill="#FFF"/>
    <path fill="#000" fill-rule="nonzero" d="M4.10134577,9.45947989 L4.00261865,9.51035794 L3.89417795,9.54934717 L3.81915931,9.5672768 L3.71223234,9.58101025 L3.60373738,9.58131219 L3.49632144,9.56803406 L3.39514373,9.54255144 L3.29789721,9.50503308 L3.21172567,9.45962389 L3.126,9.401 L3.07719336,9.36015161 L-0.329690259,5.95469026 C-0.667103247,5.61727727 -0.667103247,5.07022273 -0.329690259,4.73280974 C-0.0203950199,4.4235145 0.465057358,4.3977399 0.80371212,4.65548593 L0.892190259,4.73280974 L3.485,7.325 L7.97787611,-0.163274333 C8.22338012,-0.572447682 8.75410098,-0.705127898 9.16327433,-0.459623888 C9.54097281,-0.233004802 9.6830795,0.236639293 9.50961162,0.629377211 L9.45962389,0.725774333 L4.39712389,9.16327433 C4.32158419,9.28917382 4.21904172,9.38889645 4.10134577,9.45947989 Z" transform="translate(5 6)"/>
  </g>
</svg>
